<svg width="96" height="96" viewBox="0 0 96 96" fill="none" xmlns="http://www.w3.org/2000/svg">
  <defs>
    <linearGradient id="pinGradient" x1="24" y1="12" x2="72" y2="84" gradientUnits="userSpaceOnUse">
      <stop stop-color="#37A0FF"/>
      <stop offset="1" stop-color="#1D64F2"/>
    </linearGradient>
    <linearGradient id="innerGradient" x1="48" y1="18" x2="48" y2="66" gradientUnits="userSpaceOnUse">
      <stop stop-color="#EFF6FF" stop-opacity="0.95"/>
      <stop offset="1" stop-color="#C7E2FF" stop-opacity="0.9"/>
    </linearGradient>
  </defs>
  <path d="M48 10C30.327 10 16 23.7 16 40.7C16 61.5 39.2 81 46.4 86.6C47.3 87.3 48.7 87.3 49.6 86.6C56.8 81 80 61.5 80 40.7C80 23.7 65.673 10 48 10Z" fill="url(#pinGradient)"/>
  <circle cx="48" cy="38" r="20" fill="url(#innerGradient)"/>
  <path d="M40.5 47.5C40.5 52.1944 44.3056 56 49 56C53.6944 56 57.5 52.1944 57.5 47.5C57.5 43.5488 55.0746 40.1427 51.4991 38.9564C48.1031 37.8354 46.1519 36.0348 46.5 33.5C46.8197 31.1765 48.8093 29.5 51.2 29.5C53.5907 29.5 55.5 31.4093 55.5 33.8C55.5 34.5728 56.1272 35.2 56.9 35.2C57.6728 35.2 58.3 34.5728 58.3 33.8C58.3 29.4171 54.5829 25.7 50.2 25.7C45.8171 25.7 42.1 29.4171 42.1 33.8C42.1 37.9472 45.1126 41.2013 49.144 42.5436C51.8305 43.4373 53.9 45.3174 53.9 47.5C53.9 50.2073 51.7073 52.4 49 52.4C46.2927 52.4 44.1 50.2073 44.1 47.5V46.6C44.1 45.8272 43.4728 45.2 42.7 45.2C41.9272 45.2 41.3 45.8272 41.3 46.6V47.5Z" fill="#1D4ED8"/>
</svg>

